<svg width="158" height="54" viewBox="0 0 158 54" fill="none" xmlns="http://www.w3.org/2000/svg">
<g clip-path="url(#clip0_1_2)">
<path d="M105.667 22.9417L131.31 27.7144L130.169 33.8788L123.753 39.7141L117.991 41.2436L108.631 38.8397L105.573 29.6515" fill="#BC3F48"/>
<path d="M0 23.0625V22.9417C0 10.9874 8.91194 1.08676 21.3178 1.08676C28.9661 1.08676 33.543 3.80367 37.7576 7.78846L34.5055 11.2902C30.9524 7.90921 26.9777 5.49419 21.2566 5.49419C11.9231 5.49419 4.93725 13.1015 4.93725 22.821V22.9417C4.93725 32.7226 11.9833 40.3893 21.2566 40.3893C27.0379 40.3893 30.832 38.1554 34.8669 34.2914L37.9985 37.3705C33.6022 41.8383 28.7844 44.7957 21.1371 44.7957C8.97216 44.7967 0 35.198 0 23.0625Z" fill="#DFDFDF"/>
<path d="M52.6325 6.21869H38.4812V1.81126H71.6027V6.21869H57.4503V44.0732H52.6325V6.21869Z" fill="#DFDFDF"/>
<path d="M73.591 1.81126H103.882V6.21869H78.3486V21.3126H101.172V25.6597H78.3486V44.0732H73.591V1.81126Z" fill="#DFDFDF"/>
<path d="M128.618 28.4963V28.3756C128.618 21.1909 123.139 16.3618 117.358 16.3618C111.336 16.3618 106.397 20.8296 106.397 28.3756V28.4963C106.397 35.8621 111.516 40.5714 117.358 40.5714C123.139 40.5704 128.618 35.68 128.618 28.4963ZM102.643 28.5567V28.4359C102.643 18.2335 109.047 13.2021 116.515 13.2021C122.296 13.2021 126.029 15.3354 128.438 18.8372V0H133.075V44.0722H128.438V37.7932C125.908 41.5364 122.235 43.7301 116.515 43.7301C109.047 43.7301 102.643 38.8206 102.643 28.5567Z" fill="#DFDFDF"/>
<path d="M145.901 7.5369C139.714 0.595707 133.803 0 133.803 0V29.5901C133.803 29.5901 138.388 22.9377 146.941 21.1073C152.675 19.8807 155.473 17.4949 158.001 14.7951C158.001 14.7951 151.667 14.0031 145.901 7.5369Z" fill="#BC3F48"/>
<path d="M120.198 30.7282C120.492 29.1162 119.426 27.5716 117.819 27.2807C116.212 26.9859 114.673 28.0546 114.379 29.6656C114.155 30.8942 114.726 32.0826 115.724 32.7055L113.845 36.1147L118.431 36.9539L117.872 33.099C119.025 32.8665 119.977 31.9558 120.198 30.7282Z" fill="white"/>
<path d="M133.077 52.1223C133.077 53.1578 126.265 53.999 117.861 53.999C109.456 53.999 102.642 53.1578 102.642 52.1223C102.642 51.0869 109.456 50.2456 117.861 50.2456C126.265 50.2456 133.077 51.0869 133.077 52.1223Z" fill="#F2F2F2"/>
</g>
<defs>
<clipPath id="clip0_1_2">
<rect width="158" height="54" fill="white"/>
</clipPath>
</defs>
</svg>
