<svg width="50" height="50" viewBox="0 0 50 50" fill="none" xmlns="http://www.w3.org/2000/svg">
<path d="M0 10C0 6.2375 1.95 2.3 5 0C5 2.1125 6.725 5 10 5C14.1425 5 17.5 8.3575 17.5 12.5C17.5 13.465 17.3 14.38 16.97 15.225C18.82 16.71 20.66 18.2 22.445 19.75L17.25 24.95C15.7 23.16 14.215 21.315 12.7325 19.47C11.8825 19.8 10.9675 20 10 20C4.475 20 0 15.525 0 10ZM30.38 27.12L33.73 23.77C35.2475 24.53 36.9375 25 38.75 25C44.9625 25 50 19.9625 50 13.75C50 11.9375 49.53 10.25 48.7675 8.7325L40 17.5L35 12.5L43.7675 3.7325C42.25 2.97 40.5625 2.5 38.75 2.5C32.5375 2.5 27.5 7.5375 27.5 13.75C27.5 15.5625 27.97 17.25 28.7325 18.7675L2.5 45L7.5 50L24.62 32.88C29.3325 37.7 34.305 42.2625 39.5625 46.505L43.125 49.375L46.875 45.625L44 42.0625C39.7625 36.805 35.2 31.8325 30.38 27.12Z" fill="#00C302"/>
</svg>
