<svg width="55" height="55" viewBox="0 0 55 55" fill="none" xmlns="http://www.w3.org/2000/svg">
<path d="M50.4327 13.355L26.5827 37.2048C24.2077 39.5798 17.1577 40.6798 15.5827 39.1048C14.0077 37.5298 15.0827 30.4798 17.4577 28.1048L41.3327 4.22988C41.9215 3.58753 42.6342 3.07118 43.4282 2.71193C44.222 2.35268 45.0805 2.15793 45.9517 2.13958C46.8227 2.12125 47.6887 2.27961 48.497 2.60513C49.3052 2.93066 50.0392 3.41665 50.6545 4.03365C51.2697 4.65065 51.7537 5.3859 52.077 6.19505C52.4002 7.00423 52.5565 7.87048 52.5357 8.7416C52.515 9.61273 52.3177 10.4707 51.9565 11.2636C51.595 12.0565 51.0767 12.7679 50.4327 13.355Z" stroke="#00C302" stroke-width="3.75" stroke-linecap="round" stroke-linejoin="round"/>
<path d="M24.733 7.35483H12.233C9.5808 7.35483 7.03742 8.40838 5.16205 10.2838C3.2867 12.1591 2.23297 14.7027 2.23297 17.3548V42.3548C2.23297 45.0071 3.2867 47.5506 5.16205 49.4258C7.03742 51.3013 9.5808 52.3548 12.233 52.3548H39.733C45.258 52.3548 47.233 47.8548 47.233 42.3548V29.8548" stroke="#00C302" stroke-width="3.75" stroke-linecap="round" stroke-linejoin="round"/>
</svg>
