<svg width="488" height="355" viewBox="0 0 488 355" fill="none" xmlns="http://www.w3.org/2000/svg">
<g clip-path="url(#clip0_1_700)">
<path d="M284.259 62.5824C293.405 62.5824 300.82 55.1665 300.82 46.0185C300.82 36.8706 293.405 29.4547 284.259 29.4547C275.113 29.4547 267.699 36.8706 267.699 46.0185C267.699 55.1665 275.113 62.5824 284.259 62.5824Z" fill="#F2F2F2"/>
<path d="M412.723 308.408C437.338 289.656 449.094 258.144 441.734 228.084C441.551 227.337 441.358 226.592 441.155 225.848C436.276 208.005 424.203 191.046 406.609 185.345C391.836 180.557 375.71 184.239 360.298 182.335C330.043 178.598 306.586 154.113 290.082 128.477C273.578 102.84 260.893 74.1444 238.963 52.9652C202.813 18.0548 143.845 10.5385 99.0249 33.2626C54.205 55.9868 25.6552 106.402 26.8728 156.647C28.0904 206.893 57.9124 254.93 101.221 280.418C117.131 289.781 135.533 296.413 153.846 294.092C169.736 292.079 184.174 283.539 199.989 281.003C224.854 277.017 249.561 288.262 271.068 301.366C292.574 314.469 313.348 330.001 337.787 336.076C361.518 341.974 390.918 325.02 412.723 308.408Z" fill="#F2F2F2"/>
<path d="M377.357 34.3177C376.817 33.9579 376.271 33.6167 375.732 33.2693C360.134 23.2915 343.416 15.1856 325.922 9.11911L321.866 65.0871H296.152V0.949104C294.533 0.614115 292.902 0.297737 291.271 -3.05176e-05V65.0871H260.712C243.89 65.0871 227.756 58.4029 215.861 46.505C203.965 34.6071 197.283 18.4701 197.283 1.64397C195.645 1.99757 194.02 2.37593 192.395 2.77915V65.0871H167.506L163.642 11.7184C145.665 18.6144 128.598 27.6829 112.821 38.7222C112.548 38.9083 112.276 39.1006 112.009 39.2867C110.638 40.2483 109.286 41.2284 107.94 42.221V255.739H181.293L179.997 237.78L172.865 139.175H316.501L309.368 237.78L308.072 255.739H380.613V36.4766C379.534 35.7446 378.448 35.0249 377.357 34.3177ZM192.395 122.891H171.686L167.86 69.9754H192.395V122.891ZM291.271 122.891H256.489V121.843C256.489 121.339 256.389 120.84 256.196 120.374C256.003 119.909 255.721 119.486 255.364 119.13C255.007 118.774 254.584 118.491 254.118 118.299C253.653 118.107 253.153 118.008 252.65 118.009H237.529C237.025 118.009 236.527 118.108 236.062 118.301C235.596 118.493 235.174 118.776 234.818 119.132C234.462 119.488 234.18 119.91 233.987 120.376C233.795 120.841 233.695 121.339 233.696 121.843V122.891H197.283V69.9754H291.271V122.891ZM296.152 122.891V69.9754H321.512L317.686 122.891H296.152Z" fill="#3F3D56"/>
<path d="M-1.90735e-05 269.412C5.38797 275.798 11.2157 281.799 17.4405 287.371L470.559 287.992C476.784 282.419 482.612 276.418 488 270.033L-1.90735e-05 269.412Z" fill="#3F3D56"/>
<path d="M307.275 211.906V265.073C307.275 265.75 307.544 266.4 308.023 266.879C308.502 267.358 309.152 267.627 309.829 267.628H388.6C389.277 267.627 389.927 267.358 390.406 266.879C390.885 266.4 391.154 265.75 391.155 265.073V211.906C391.153 211.229 390.883 210.58 390.404 210.102C389.925 209.624 389.277 209.355 388.6 209.354H309.829C309.153 209.355 308.504 209.624 308.025 210.102C307.546 210.58 307.276 211.229 307.275 211.906Z" fill="#3F3D56"/>
<path d="M309.123 212.568V264.417C309.123 264.779 309.267 265.126 309.523 265.382C309.779 265.638 310.126 265.782 310.488 265.782H387.944C388.306 265.782 388.653 265.638 388.909 265.382C389.165 265.126 389.309 264.779 389.309 264.417V212.568C389.309 212.205 389.166 211.858 388.91 211.601C388.654 211.344 388.306 211.2 387.944 211.199H310.488C310.126 211.2 309.778 211.344 309.522 211.601C309.266 211.858 309.123 212.205 309.123 212.568Z" fill="#00C302"/>
<path d="M305.627 275.441C305.772 275.622 305.955 275.768 306.164 275.868C306.372 275.968 306.601 276.019 306.833 276.018H391.177C391.408 276.018 391.636 275.966 391.844 275.867C392.052 275.768 392.235 275.623 392.381 275.444C392.526 275.265 392.63 275.055 392.684 274.831C392.738 274.607 392.742 274.373 392.694 274.147L391.385 267.927C391.331 267.673 391.214 267.437 391.045 267.24C390.876 267.043 390.661 266.892 390.419 266.799C390.243 266.731 390.056 266.695 389.868 266.695H308.137C307.948 266.695 307.761 266.731 307.586 266.799C307.344 266.892 307.128 267.043 306.959 267.24C306.791 267.437 306.674 267.673 306.62 267.927L305.31 274.147C305.264 274.373 305.268 274.606 305.323 274.83C305.378 275.054 305.482 275.263 305.627 275.441Z" fill="#2F2E41"/>
<path d="M386.974 269.375H388.966C389.133 269.375 389.269 269.239 389.269 269.072V268.119C389.269 267.951 389.133 267.816 388.966 267.816H386.974C386.807 267.816 386.671 267.951 386.671 268.119V269.072C386.671 269.239 386.807 269.375 386.974 269.375Z" fill="#3F3D56"/>
<path d="M381.778 269.375H383.771C383.938 269.375 384.073 269.239 384.073 269.072V268.119C384.073 267.951 383.938 267.816 383.771 267.816H381.778C381.611 267.816 381.476 267.951 381.476 268.119V269.072C381.476 269.239 381.611 269.375 381.778 269.375Z" fill="#3F3D56"/>
<path d="M376.583 269.375H378.575C378.742 269.375 378.878 269.239 378.878 269.072V268.119C378.878 267.951 378.742 267.816 378.575 267.816H376.583C376.416 267.816 376.28 267.951 376.28 268.119V269.072C376.28 269.239 376.416 269.375 376.583 269.375Z" fill="#3F3D56"/>
<path d="M371.387 269.375H373.379C373.547 269.375 373.682 269.239 373.682 269.072V268.119C373.682 267.951 373.547 267.816 373.379 267.816H371.387C371.22 267.816 371.084 267.951 371.084 268.119V269.072C371.084 269.239 371.22 269.375 371.387 269.375Z" fill="#3F3D56"/>
<path d="M366.192 269.375H368.184C368.351 269.375 368.487 269.239 368.487 269.072V268.119C368.487 267.951 368.351 267.816 368.184 267.816H366.192C366.025 267.816 365.889 267.951 365.889 268.119V269.072C365.889 269.239 366.025 269.375 366.192 269.375Z" fill="#3F3D56"/>
<path d="M360.996 269.375H362.988C363.156 269.375 363.291 269.239 363.291 269.072V268.119C363.291 267.951 363.156 267.816 362.988 267.816H360.996C360.829 267.816 360.693 267.951 360.693 268.119V269.072C360.693 269.239 360.829 269.375 360.996 269.375Z" fill="#3F3D56"/>
<path d="M355.801 269.375H357.793C357.96 269.375 358.096 269.239 358.096 269.072V268.119C358.096 267.951 357.96 267.816 357.793 267.816H355.801C355.633 267.816 355.498 267.951 355.498 268.119V269.072C355.498 269.239 355.633 269.375 355.801 269.375Z" fill="#3F3D56"/>
<path d="M350.605 269.375H352.597C352.764 269.375 352.9 269.239 352.9 269.072V268.119C352.9 267.951 352.764 267.816 352.597 267.816H350.605C350.438 267.816 350.302 267.951 350.302 268.119V269.072C350.302 269.239 350.438 269.375 350.605 269.375Z" fill="#3F3D56"/>
<path d="M345.41 269.375H347.402C347.569 269.375 347.704 269.239 347.704 269.072V268.119C347.704 267.951 347.569 267.816 347.402 267.816H345.41C345.242 267.816 345.107 267.951 345.107 268.119V269.072C345.107 269.239 345.242 269.375 345.41 269.375Z" fill="#3F3D56"/>
<path d="M340.214 269.375H342.206C342.373 269.375 342.509 269.239 342.509 269.072V268.119C342.509 267.951 342.373 267.816 342.206 267.816H340.214C340.047 267.816 339.911 267.951 339.911 268.119V269.072C339.911 269.239 340.047 269.375 340.214 269.375Z" fill="#3F3D56"/>
<path d="M335.018 269.375H337.011C337.178 269.375 337.313 269.239 337.313 269.072V268.119C337.313 267.951 337.178 267.816 337.011 267.816H335.018C334.851 267.816 334.716 267.951 334.716 268.119V269.072C334.716 269.239 334.851 269.375 335.018 269.375Z" fill="#3F3D56"/>
<path d="M329.823 269.375H331.815C331.982 269.375 332.118 269.239 332.118 269.072V268.119C332.118 267.951 331.982 267.816 331.815 267.816H329.823C329.656 267.816 329.52 267.951 329.52 268.119V269.072C329.52 269.239 329.656 269.375 329.823 269.375Z" fill="#3F3D56"/>
<path d="M324.627 269.375H326.619C326.787 269.375 326.922 269.239 326.922 269.072V268.119C326.922 267.951 326.787 267.816 326.619 267.816H324.627C324.46 267.816 324.324 267.951 324.324 268.119V269.072C324.324 269.239 324.46 269.375 324.627 269.375Z" fill="#3F3D56"/>
<path d="M319.432 269.375H321.424C321.591 269.375 321.727 269.239 321.727 269.072V268.119C321.727 267.951 321.591 267.816 321.424 267.816H319.432C319.264 267.816 319.129 267.951 319.129 268.119V269.072C319.129 269.239 319.264 269.375 319.432 269.375Z" fill="#3F3D56"/>
<path d="M314.236 269.375H316.228C316.396 269.375 316.531 269.239 316.531 269.072V268.119C316.531 267.951 316.396 267.816 316.228 267.816H314.236C314.069 267.816 313.933 267.951 313.933 268.119V269.072C313.933 269.239 314.069 269.375 314.236 269.375Z" fill="#3F3D56"/>
<path d="M309.041 269.375H311.033C311.2 269.375 311.336 269.239 311.336 269.072V268.119C311.336 267.951 311.2 267.816 311.033 267.816H309.041C308.873 267.816 308.738 267.951 308.738 268.119V269.072C308.738 269.239 308.873 269.375 309.041 269.375Z" fill="#3F3D56"/>
<path d="M387.035 271.973H389.028C389.195 271.973 389.33 271.837 389.33 271.67V270.717C389.33 270.55 389.195 270.414 389.028 270.414H387.035C386.868 270.414 386.733 270.55 386.733 270.717V271.67C386.733 271.837 386.868 271.973 387.035 271.973Z" fill="#3F3D56"/>
<path d="M381.84 271.973H383.832C383.999 271.973 384.135 271.837 384.135 271.67V270.717C384.135 270.55 383.999 270.414 383.832 270.414H381.84C381.673 270.414 381.537 270.55 381.537 270.717V271.67C381.537 271.837 381.673 271.973 381.84 271.973Z" fill="#3F3D56"/>
<path d="M376.644 271.973H378.636C378.804 271.973 378.939 271.837 378.939 271.67V270.717C378.939 270.55 378.804 270.414 378.636 270.414H376.644C376.477 270.414 376.341 270.55 376.341 270.717V271.67C376.341 271.837 376.477 271.973 376.644 271.973Z" fill="#3F3D56"/>
<path d="M371.449 271.973H373.441C373.608 271.973 373.744 271.837 373.744 271.67V270.717C373.744 270.55 373.608 270.414 373.441 270.414H371.449C371.281 270.414 371.146 270.55 371.146 270.717V271.67C371.146 271.837 371.281 271.973 371.449 271.973Z" fill="#3F3D56"/>
<path d="M366.253 271.973H368.245C368.412 271.973 368.548 271.837 368.548 271.67V270.717C368.548 270.55 368.412 270.414 368.245 270.414H366.253C366.086 270.414 365.95 270.55 365.95 270.717V271.67C365.95 271.837 366.086 271.973 366.253 271.973Z" fill="#3F3D56"/>
<path d="M361.058 271.973H363.05C363.217 271.973 363.353 271.837 363.353 271.67V270.717C363.353 270.55 363.217 270.414 363.05 270.414H361.058C360.89 270.414 360.755 270.55 360.755 270.717V271.67C360.755 271.837 360.89 271.973 361.058 271.973Z" fill="#3F3D56"/>
<path d="M355.862 271.973H357.854C358.021 271.973 358.157 271.837 358.157 271.67V270.717C358.157 270.55 358.021 270.414 357.854 270.414H355.862C355.695 270.414 355.559 270.55 355.559 270.717V271.67C355.559 271.837 355.695 271.973 355.862 271.973Z" fill="#3F3D56"/>
<path d="M350.666 271.973H352.659C352.826 271.973 352.961 271.837 352.961 271.67V270.717C352.961 270.55 352.826 270.414 352.659 270.414H350.666C350.499 270.414 350.364 270.55 350.364 270.717V271.67C350.364 271.837 350.499 271.973 350.666 271.973Z" fill="#3F3D56"/>
<path d="M345.471 271.973H347.463C347.63 271.973 347.766 271.837 347.766 271.67V270.717C347.766 270.55 347.63 270.414 347.463 270.414H345.471C345.304 270.414 345.168 270.55 345.168 270.717V271.67C345.168 271.837 345.304 271.973 345.471 271.973Z" fill="#3F3D56"/>
<path d="M340.275 271.973H342.268C342.435 271.973 342.57 271.837 342.57 271.67V270.717C342.57 270.55 342.435 270.414 342.268 270.414H340.275C340.108 270.414 339.973 270.55 339.973 270.717V271.67C339.973 271.837 340.108 271.973 340.275 271.973Z" fill="#3F3D56"/>
<path d="M335.08 271.973H337.072C337.239 271.973 337.375 271.837 337.375 271.67V270.717C337.375 270.55 337.239 270.414 337.072 270.414H335.08C334.913 270.414 334.777 270.55 334.777 270.717V271.67C334.777 271.837 334.913 271.973 335.08 271.973Z" fill="#3F3D56"/>
<path d="M329.884 271.973H331.876C332.044 271.973 332.179 271.837 332.179 271.67V270.717C332.179 270.55 332.044 270.414 331.876 270.414H329.884C329.717 270.414 329.581 270.55 329.581 270.717V271.67C329.581 271.837 329.717 271.973 329.884 271.973Z" fill="#3F3D56"/>
<path d="M324.689 271.973H326.681C326.848 271.973 326.984 271.837 326.984 271.67V270.717C326.984 270.55 326.848 270.414 326.681 270.414H324.689C324.521 270.414 324.386 270.55 324.386 270.717V271.67C324.386 271.837 324.521 271.973 324.689 271.973Z" fill="#3F3D56"/>
<path d="M319.493 271.973H321.485C321.653 271.973 321.788 271.837 321.788 271.67V270.717C321.788 270.55 321.653 270.414 321.485 270.414H319.493C319.326 270.414 319.19 270.55 319.19 270.717V271.67C319.19 271.837 319.326 271.973 319.493 271.973Z" fill="#3F3D56"/>
<path d="M314.297 271.973H316.29C316.457 271.973 316.592 271.837 316.592 271.67V270.717C316.592 270.55 316.457 270.414 316.29 270.414H314.297C314.13 270.414 313.995 270.55 313.995 270.717V271.67C313.995 271.837 314.13 271.973 314.297 271.973Z" fill="#3F3D56"/>
<path d="M309.102 271.973H311.094C311.261 271.973 311.397 271.837 311.397 271.67V270.717C311.397 270.55 311.261 270.414 311.094 270.414H309.102C308.935 270.414 308.799 270.55 308.799 270.717V271.67C308.799 271.837 308.935 271.973 309.102 271.973Z" fill="#3F3D56"/>
<path d="M343.912 275.091H364.089C364.256 275.091 364.392 274.955 364.392 274.788V273.835C364.392 273.668 364.256 273.532 364.089 273.532H343.912C343.745 273.532 343.609 273.668 343.609 273.835V274.788C343.609 274.955 343.745 275.091 343.912 275.091Z" fill="#3F3D56"/>
<path d="M322.536 222.542H320.772C320.237 222.542 319.804 222.976 319.804 223.511C319.804 224.046 320.237 224.479 320.772 224.479H322.536C323.07 224.479 323.504 224.046 323.504 223.511C323.504 222.976 323.07 222.542 322.536 222.542Z" fill="white"/>
<path d="M342.707 222.542H340.943C340.409 222.542 339.975 222.976 339.975 223.511C339.975 224.046 340.409 224.479 340.943 224.479H342.707C343.242 224.479 343.675 224.046 343.675 223.511C343.675 222.976 343.242 222.542 342.707 222.542Z" fill="white"/>
<path d="M348.422 222.542H346.659C346.124 222.542 345.69 222.976 345.69 223.511C345.69 224.046 346.124 224.479 346.659 224.479H348.422C348.957 224.479 349.39 224.046 349.39 223.511C349.39 222.976 348.957 222.542 348.422 222.542Z" fill="white"/>
<path d="M337.22 222.381H326.259C325.724 222.381 325.29 222.815 325.29 223.349C325.29 223.884 325.724 224.318 326.259 224.318H337.22C337.755 224.318 338.189 223.884 338.189 223.349C338.189 222.815 337.755 222.381 337.22 222.381Z" fill="white"/>
<path d="M364.115 222.381H353.154C352.619 222.381 352.186 222.815 352.186 223.349C352.186 223.884 352.619 224.318 353.154 224.318H364.115C364.65 224.318 365.084 223.884 365.084 223.349C365.084 222.815 364.65 222.381 364.115 222.381Z" fill="white"/>
<path d="M327.915 226.914H326.151C325.616 226.914 325.183 227.347 325.183 227.882C325.183 228.417 325.616 228.851 326.151 228.851H327.915C328.449 228.851 328.883 228.417 328.883 227.882C328.883 227.347 328.449 226.914 327.915 226.914Z" fill="white"/>
<path d="M348.086 226.914H346.322C345.788 226.914 345.354 227.347 345.354 227.882C345.354 228.417 345.788 228.851 346.322 228.851H348.086C348.621 228.851 349.054 228.417 349.054 227.882C349.054 227.347 348.621 226.914 348.086 226.914Z" fill="white"/>
<path d="M353.801 226.914H352.038C351.503 226.914 351.069 227.347 351.069 227.882C351.069 228.417 351.503 228.851 352.038 228.851H353.801C354.336 228.851 354.769 228.417 354.769 227.882C354.769 227.347 354.336 226.914 353.801 226.914Z" fill="white"/>
<path d="M342.599 226.752H331.638C331.103 226.752 330.669 227.186 330.669 227.721C330.669 228.256 331.103 228.689 331.638 228.689H342.599C343.134 228.689 343.568 228.256 343.568 227.721C343.568 227.186 343.134 226.752 342.599 226.752Z" fill="white"/>
<path d="M369.495 226.752H358.533C357.998 226.752 357.565 227.186 357.565 227.721C357.565 228.256 357.998 228.689 358.533 228.689H369.495C370.029 228.689 370.463 228.256 370.463 227.721C370.463 227.186 370.029 226.752 369.495 226.752Z" fill="white"/>
<path d="M333.294 231.285H331.53C330.995 231.285 330.562 231.719 330.562 232.254C330.562 232.789 330.995 233.222 331.53 233.222H333.294C333.828 233.222 334.262 232.789 334.262 232.254C334.262 231.719 333.828 231.285 333.294 231.285Z" fill="white"/>
<path d="M353.465 231.285H351.701C351.167 231.285 350.733 231.719 350.733 232.254C350.733 232.789 351.167 233.222 351.701 233.222H353.465C354 233.222 354.433 232.789 354.433 232.254C354.433 231.719 354 231.285 353.465 231.285Z" fill="white"/>
<path d="M359.18 231.285H357.417C356.882 231.285 356.448 231.719 356.448 232.254C356.448 232.789 356.882 233.222 357.417 233.222H359.18C359.715 233.222 360.148 232.789 360.148 232.254C360.148 231.719 359.715 231.285 359.18 231.285Z" fill="white"/>
<path d="M347.978 231.124H337.017C336.482 231.124 336.048 231.557 336.048 232.092C336.048 232.627 336.482 233.061 337.017 233.061H347.978C348.513 233.061 348.947 232.627 348.947 232.092C348.947 231.557 348.513 231.124 347.978 231.124Z" fill="white"/>
<path d="M374.874 231.124H363.912C363.377 231.124 362.944 231.557 362.944 232.092C362.944 232.627 363.377 233.061 363.912 233.061H374.874C375.408 233.061 375.842 232.627 375.842 232.092C375.842 231.557 375.408 231.124 374.874 231.124Z" fill="white"/>
<path d="M338.673 235.657H336.909C336.374 235.657 335.941 236.09 335.941 236.625C335.941 237.16 336.374 237.593 336.909 237.593H338.673C339.207 237.593 339.641 237.16 339.641 236.625C339.641 236.09 339.207 235.657 338.673 235.657Z" fill="white"/>
<path d="M358.844 235.657H357.08C356.546 235.657 356.112 236.09 356.112 236.625C356.112 237.16 356.546 237.593 357.08 237.593H358.844C359.379 237.593 359.812 237.16 359.812 236.625C359.812 236.09 359.379 235.657 358.844 235.657Z" fill="white"/>
<path d="M364.559 235.657H362.796C362.261 235.657 361.827 236.09 361.827 236.625C361.827 237.16 362.261 237.593 362.796 237.593H364.559C365.094 237.593 365.528 237.16 365.528 236.625C365.528 236.09 365.094 235.657 364.559 235.657Z" fill="white"/>
<path d="M353.357 235.495H342.396C341.861 235.495 341.428 235.929 341.428 236.464C341.428 236.998 341.861 237.432 342.396 237.432H353.357C353.892 237.432 354.326 236.998 354.326 236.464C354.326 235.929 353.892 235.495 353.357 235.495Z" fill="white"/>
<path d="M342.707 253.039H340.943C340.409 253.039 339.975 253.473 339.975 254.008C339.975 254.542 340.409 254.976 340.943 254.976H342.707C343.242 254.976 343.675 254.542 343.675 254.008C343.675 253.473 343.242 253.039 342.707 253.039Z" fill="white"/>
<path d="M348.422 253.039H346.659C346.124 253.039 345.69 253.473 345.69 254.008C345.69 254.542 346.124 254.976 346.659 254.976H348.422C348.957 254.976 349.39 254.542 349.39 254.008C349.39 253.473 348.957 253.039 348.422 253.039Z" fill="white"/>
<path d="M364.115 253.201H353.154C352.619 253.201 352.186 253.634 352.186 254.169C352.186 254.704 352.619 255.137 353.154 255.137H364.115C364.65 255.137 365.084 254.704 365.084 254.169C365.084 253.634 364.65 253.201 364.115 253.201Z" fill="white"/>
<path d="M322.536 253.039H320.772C320.237 253.039 319.804 253.473 319.804 254.008C319.804 254.542 320.237 254.976 320.772 254.976H322.536C323.07 254.976 323.504 254.542 323.504 254.008C323.504 253.473 323.07 253.039 322.536 253.039Z" fill="white"/>
<path d="M337.22 253.201H326.259C325.724 253.201 325.29 253.634 325.29 254.169C325.29 254.704 325.724 255.137 326.259 255.137H337.22C337.755 255.137 338.189 254.704 338.189 254.169C338.189 253.634 337.755 253.201 337.22 253.201Z" fill="white"/>
<path d="M327.915 248.668H326.151C325.616 248.668 325.183 249.101 325.183 249.636C325.183 250.171 325.616 250.605 326.151 250.605H327.915C328.449 250.605 328.883 250.171 328.883 249.636C328.883 249.101 328.449 248.668 327.915 248.668Z" fill="white"/>
<path d="M348.086 248.668H346.322C345.788 248.668 345.354 249.101 345.354 249.636C345.354 250.171 345.788 250.605 346.322 250.605H348.086C348.621 250.605 349.054 250.171 349.054 249.636C349.054 249.101 348.621 248.668 348.086 248.668Z" fill="white"/>
<path d="M353.801 248.668H352.038C351.503 248.668 351.069 249.101 351.069 249.636C351.069 250.171 351.503 250.605 352.038 250.605H353.801C354.336 250.605 354.769 250.171 354.769 249.636C354.769 249.101 354.336 248.668 353.801 248.668Z" fill="white"/>
<path d="M342.599 248.829H331.638C331.103 248.829 330.669 249.263 330.669 249.798C330.669 250.332 331.103 250.766 331.638 250.766H342.599C343.134 250.766 343.568 250.332 343.568 249.798C343.568 249.263 343.134 248.829 342.599 248.829Z" fill="white"/>
<path d="M333.294 244.296H331.53C330.995 244.296 330.562 244.73 330.562 245.265C330.562 245.8 330.995 246.233 331.53 246.233H333.294C333.828 246.233 334.262 245.8 334.262 245.265C334.262 244.73 333.828 244.296 333.294 244.296Z" fill="white"/>
<path d="M353.465 244.296H351.701C351.167 244.296 350.733 244.73 350.733 245.265C350.733 245.8 351.167 246.233 351.701 246.233H353.465C354 246.233 354.433 245.8 354.433 245.265C354.433 244.73 354 244.296 353.465 244.296Z" fill="white"/>
<path d="M359.18 244.296H357.417C356.882 244.296 356.448 244.73 356.448 245.265C356.448 245.8 356.882 246.233 357.417 246.233H359.18C359.715 246.233 360.148 245.8 360.148 245.265C360.148 244.73 359.715 244.296 359.18 244.296Z" fill="white"/>
<path d="M347.978 244.458H337.017C336.482 244.458 336.048 244.891 336.048 245.426C336.048 245.961 336.482 246.395 337.017 246.395H347.978C348.513 246.395 348.947 245.961 348.947 245.426C348.947 244.891 348.513 244.458 347.978 244.458Z" fill="white"/>
<path d="M338.673 239.925H336.909C336.374 239.925 335.941 240.359 335.941 240.893C335.941 241.428 336.374 241.862 336.909 241.862H338.673C339.207 241.862 339.641 241.428 339.641 240.893C339.641 240.359 339.207 239.925 338.673 239.925Z" fill="white"/>
<path d="M358.844 239.925H357.08C356.546 239.925 356.112 240.359 356.112 240.893C356.112 241.428 356.546 241.862 357.08 241.862H358.844C359.379 241.862 359.812 241.428 359.812 240.893C359.812 240.359 359.379 239.925 358.844 239.925Z" fill="white"/>
<path d="M364.559 239.925H362.796C362.261 239.925 361.827 240.359 361.827 240.893C361.827 241.428 362.261 241.862 362.796 241.862H364.559C365.094 241.862 365.528 241.428 365.528 240.893C365.528 240.359 365.094 239.925 364.559 239.925Z" fill="white"/>
<path d="M353.357 240.086H342.396C341.861 240.086 341.428 240.52 341.428 241.055C341.428 241.59 341.861 242.023 342.396 242.023H353.357C353.892 242.023 354.326 241.59 354.326 241.055C354.326 240.52 353.892 240.086 353.357 240.086Z" fill="white"/>
<path d="M313.159 304.27L304.879 291.18L330.868 270.458L341.594 258.572C342.988 257.027 344.763 255.876 346.74 255.233C348.718 254.589 350.83 254.476 352.866 254.905C354.901 255.334 356.788 256.289 358.338 257.676C359.889 259.063 361.048 260.832 361.701 262.807C362.668 265.735 362.46 268.923 361.121 271.7C359.782 274.477 357.417 276.625 354.525 277.69L337.562 283.941L313.159 304.27Z" fill="#FFB6B6"/>
<path d="M118.89 209.356V272.979H163.452V209.356C163.453 208.899 163.307 208.453 163.036 208.084C162.764 207.716 162.382 207.444 161.945 207.309C161.739 207.241 161.523 207.207 161.306 207.21H121.042C120.759 207.209 120.48 207.264 120.219 207.372C119.958 207.48 119.721 207.637 119.521 207.837C119.321 208.036 119.162 208.273 119.054 208.534C118.946 208.794 118.89 209.074 118.89 209.356ZM136.281 231.217C136.292 229.963 136.798 228.764 137.689 227.881C138.58 226.998 139.784 226.503 141.038 226.503C142.292 226.503 143.495 226.998 144.386 227.881C145.277 228.764 145.783 229.963 145.795 231.217V238.599C145.788 239.857 145.284 241.061 144.393 241.948C143.501 242.835 142.295 243.333 141.038 243.333C139.78 243.333 138.574 242.835 137.682 241.948C136.791 241.061 136.287 239.857 136.281 238.599V231.217Z" fill="#2F2E41"/>
<path d="M118.753 270.945V277.08C118.754 277.398 118.88 277.702 119.105 277.927C119.329 278.153 119.632 278.281 119.95 278.283H162.392C162.71 278.282 163.014 278.154 163.239 277.929C163.463 277.703 163.589 277.398 163.589 277.08V270.945H118.753Z" fill="#3F3D56"/>
<path d="M48.7863 113.5V229.666C48.7875 231.147 49.376 232.566 50.4226 233.613C51.4691 234.66 52.8882 235.248 54.3683 235.25H226.479C227.959 235.248 229.378 234.66 230.425 233.613C231.471 232.566 232.06 231.147 232.061 229.666V113.5C232.057 112.021 231.468 110.603 230.422 109.558C229.375 108.513 227.958 107.925 226.479 107.923H54.3683C52.8895 107.925 51.4718 108.513 50.4255 109.558C49.3793 110.603 48.7899 112.021 48.7863 113.5Z" fill="#3F3D56"/>
<path d="M52.824 114.945V228.233C52.8253 229.024 53.1401 229.783 53.6992 230.342C54.2584 230.901 55.0164 231.216 55.8072 231.217H225.046C225.837 231.216 226.595 230.901 227.154 230.342C227.713 229.783 228.028 229.024 228.029 228.233V114.945C228.029 114.153 227.715 113.394 227.156 112.833C226.597 112.273 225.838 111.957 225.046 111.955H55.8072C55.0155 111.957 54.2567 112.273 53.6975 112.833C53.1382 113.394 52.824 114.153 52.824 114.945Z" fill="white"/>
<path d="M84.2318 277.868C84.4041 278.084 84.623 278.258 84.8722 278.377C85.1215 278.496 85.3945 278.558 85.6707 278.556H186.357C186.632 278.556 186.904 278.494 187.153 278.375C187.401 278.257 187.62 278.084 187.794 277.87C187.967 277.657 188.091 277.407 188.155 277.139C188.22 276.871 188.224 276.592 188.168 276.323L186.605 268.897C186.54 268.595 186.401 268.313 186.199 268.078C185.998 267.842 185.741 267.662 185.451 267.551C185.242 267.469 185.019 267.427 184.794 267.427H87.2275C87.0025 267.427 86.7795 267.469 86.57 267.551C86.2808 267.661 86.0236 267.842 85.8222 268.078C85.6207 268.313 85.4812 268.594 85.4164 268.897L83.8535 276.323C83.7979 276.592 83.803 276.871 83.8684 277.138C83.9339 277.405 84.058 277.654 84.2318 277.868Z" fill="#2F2E41"/>
<path d="M219.554 127.561H61.1976C61.033 127.557 60.8764 127.489 60.7613 127.372C60.6462 127.254 60.5817 127.096 60.5817 126.931C60.5817 126.766 60.6462 126.608 60.7613 126.491C60.8764 126.373 61.033 126.305 61.1976 126.301H219.554C219.718 126.305 219.875 126.373 219.99 126.491C220.105 126.608 220.17 126.766 220.17 126.931C220.17 127.096 220.105 127.254 219.99 127.372C219.875 127.489 219.718 127.557 219.554 127.561Z" fill="#3F3D56"/>
<path d="M71.9771 123.085C74.0154 123.085 75.6677 121.396 75.6677 119.312C75.6677 117.228 74.0154 115.538 71.9771 115.538C69.9389 115.538 68.2866 117.228 68.2866 119.312C68.2866 121.396 69.9389 123.085 71.9771 123.085Z" fill="#3F3D56"/>
<path d="M84.7263 123.085C86.7646 123.085 88.4169 121.396 88.4169 119.312C88.4169 117.228 86.7646 115.538 84.7263 115.538C82.6881 115.538 81.0358 117.228 81.0358 119.312C81.0358 121.396 82.6881 123.085 84.7263 123.085Z" fill="#3F3D56"/>
<path d="M97.4756 123.085C99.5138 123.085 101.166 121.396 101.166 119.312C101.166 117.228 99.5138 115.538 97.4756 115.538C95.4373 115.538 93.785 117.228 93.785 119.312C93.785 121.396 95.4373 123.085 97.4756 123.085Z" fill="#3F3D56"/>
<path d="M211.877 116.471H202.821C202.642 116.475 202.472 116.549 202.347 116.678C202.222 116.806 202.152 116.978 202.152 117.157C202.152 117.336 202.222 117.508 202.347 117.636C202.472 117.764 202.642 117.838 202.821 117.842H211.877C212.057 117.84 212.229 117.766 212.355 117.638C212.482 117.51 212.552 117.337 212.552 117.157C212.552 116.977 212.482 116.804 212.355 116.675C212.229 116.547 212.057 116.474 211.877 116.471Z" fill="#3F3D56"/>
<path d="M211.877 119.046H202.821C202.642 119.05 202.472 119.124 202.347 119.252C202.221 119.38 202.151 119.552 202.151 119.731C202.151 119.91 202.221 120.082 202.347 120.211C202.472 120.339 202.642 120.413 202.821 120.417H211.877C212.057 120.414 212.229 120.341 212.356 120.213C212.483 120.085 212.554 119.912 212.554 119.731C212.554 119.551 212.483 119.378 212.356 119.249C212.229 119.121 212.057 119.048 211.877 119.046Z" fill="#3F3D56"/>
<path d="M211.877 121.62H202.821C202.642 121.624 202.472 121.698 202.347 121.826C202.222 121.955 202.152 122.126 202.152 122.306C202.152 122.485 202.222 122.657 202.347 122.785C202.472 122.913 202.642 122.987 202.821 122.991H211.877C212.057 122.989 212.229 122.915 212.355 122.787C212.482 122.659 212.552 122.486 212.552 122.306C212.552 122.125 212.482 121.953 212.355 121.824C212.229 121.696 212.057 121.623 211.877 121.62Z" fill="#3F3D56"/>
<path d="M430.181 273.637C430.454 274.433 430.972 275.122 431.661 275.604C432.35 276.087 433.174 276.339 434.016 276.324L450.446 275.901C451.293 275.884 452.113 275.594 452.781 275.073C453.45 274.553 453.932 273.829 454.156 273.012L456.481 248.144C457.306 248.518 458.204 248.702 459.109 248.684C459.896 248.664 460.671 248.49 461.39 248.17C462.109 247.851 462.759 247.393 463.301 246.823C463.843 246.252 464.268 245.581 464.551 244.846C464.833 244.112 464.969 243.329 464.949 242.542C464.929 241.755 464.755 240.98 464.436 240.261C464.116 239.541 463.658 238.892 463.088 238.349C462.518 237.807 461.847 237.382 461.112 237.1C460.378 236.817 459.595 236.681 458.808 236.701C458.447 236.7 458.086 236.737 457.732 236.813C457.347 236.397 456.879 236.065 456.358 235.841C455.838 235.616 455.276 235.503 454.709 235.508L429.435 236.161C429.225 236.169 429.016 236.195 428.811 236.239C428.257 236.342 427.731 236.563 427.269 236.886C426.808 237.21 426.421 237.629 426.134 238.115C425.848 238.6 425.669 239.142 425.609 239.703C425.55 240.263 425.611 240.83 425.789 241.366L430.181 273.637ZM456.958 246.455L458.612 240.529C458.8 239.845 458.805 239.123 458.625 238.436C458.705 238.436 458.776 238.398 458.856 238.397C459.991 238.374 461.088 238.801 461.908 239.586C462.728 240.371 463.203 241.448 463.23 242.583C463.256 243.718 462.832 244.817 462.05 245.639C461.267 246.461 460.191 246.939 459.057 246.969C458.323 246.992 457.598 246.814 456.958 246.455Z" fill="#2F2E41"/>
<path d="M428.811 236.239C429.35 239.318 435.403 241.483 442.683 241.107C449.377 240.798 454.85 238.447 455.853 235.661C455.481 235.551 455.096 235.5 454.709 235.508L429.435 236.161C429.225 236.169 429.016 236.195 428.811 236.239Z" fill="#3F3D56"/>
<path d="M444.017 259.972C444.05 259.963 444.082 259.95 444.11 259.931L447.679 257.595C447.722 257.567 447.757 257.528 447.782 257.483C447.806 257.438 447.819 257.387 447.819 257.335C447.819 257.284 447.806 257.233 447.782 257.188C447.757 257.143 447.722 257.104 447.679 257.076L443.97 254.646C443.936 254.624 443.898 254.608 443.858 254.6C443.818 254.593 443.777 254.593 443.737 254.601C443.697 254.609 443.659 254.625 443.625 254.648C443.591 254.671 443.562 254.701 443.54 254.735C443.517 254.769 443.502 254.807 443.495 254.847C443.487 254.887 443.487 254.929 443.496 254.969C443.504 255.008 443.52 255.046 443.543 255.08C443.567 255.114 443.596 255.143 443.63 255.165L446.943 257.335L443.771 259.412C443.71 259.452 443.664 259.513 443.644 259.583C443.623 259.653 443.627 259.729 443.657 259.796C443.686 259.863 443.739 259.918 443.805 259.95C443.871 259.982 443.946 259.99 444.017 259.972Z" fill="#00C302"/>
<path d="M438.381 260.232C438.441 260.217 438.495 260.184 438.536 260.138C438.577 260.092 438.604 260.035 438.612 259.973C438.621 259.912 438.611 259.85 438.583 259.794C438.556 259.739 438.513 259.693 438.459 259.662L435.17 257.776L438.349 255.414C438.382 255.39 438.409 255.359 438.43 255.325C438.451 255.29 438.465 255.251 438.471 255.211C438.477 255.17 438.475 255.129 438.465 255.09C438.455 255.05 438.437 255.013 438.413 254.981C438.389 254.948 438.358 254.92 438.323 254.899C438.289 254.879 438.25 254.865 438.21 254.859C438.169 254.853 438.128 254.855 438.089 254.865C438.049 254.875 438.012 254.892 437.98 254.917L434.42 257.561C434.379 257.592 434.346 257.632 434.324 257.679C434.302 257.725 434.293 257.777 434.296 257.828C434.299 257.88 434.314 257.929 434.342 257.973C434.369 258.017 434.406 258.053 434.451 258.079L438.151 260.2C438.22 260.24 438.303 260.252 438.381 260.232Z" fill="#00C302"/>
<path d="M443.662 262.019C443.692 262.012 443.721 261.999 443.747 261.983C443.782 261.962 443.812 261.934 443.836 261.901C443.86 261.868 443.878 261.831 443.887 261.792C443.897 261.752 443.899 261.711 443.892 261.671C443.886 261.63 443.872 261.592 443.851 261.557L438.793 253.239C438.75 253.169 438.681 253.119 438.601 253.099C438.521 253.08 438.437 253.093 438.367 253.136C438.296 253.179 438.246 253.248 438.227 253.327C438.207 253.407 438.22 253.492 438.263 253.562L443.321 261.88C443.355 261.936 443.407 261.98 443.469 262.005C443.53 262.031 443.598 262.035 443.662 262.019Z" fill="#00C302"/>
<path d="M159.297 161.804H131.889C130.77 161.804 129.864 162.711 129.864 163.829V166.507C129.864 167.626 130.77 168.532 131.889 168.532H159.297C160.415 168.532 161.321 167.626 161.321 166.507V163.829C161.321 162.711 160.415 161.804 159.297 161.804Z" fill="#00C302"/>
<path d="M175.272 175.26H115.913C114.795 175.26 113.888 176.167 113.888 177.285V179.964C113.888 181.082 114.795 181.988 115.913 181.988H175.272C176.391 181.988 177.297 181.082 177.297 179.964V177.285C177.297 176.167 176.391 175.26 175.272 175.26Z" fill="#E6E6E6"/>
<path d="M175.272 188.717H115.913C114.795 188.717 113.888 189.623 113.888 190.741V193.42C113.888 194.538 114.795 195.445 115.913 195.445H175.272C176.391 195.445 177.297 194.538 177.297 193.42V190.741C177.297 189.623 176.391 188.717 175.272 188.717Z" fill="#E6E6E6"/>
<path d="M180.304 233.776L180.439 234.201L180.446 234.215L184.493 246.522L189.148 260.703L197.908 287.354L197.992 291.494V291.508L198.643 324.812L196.839 329.327L198.87 336.729C198.87 336.729 197.936 325.54 192.927 331.965C190.089 335.617 186.771 339.353 184.047 342.856C188.016 344.463 192.049 345.916 196.146 347.216C197.03 347.499 197.922 347.768 198.813 348.037C199.004 348.093 199.195 348.15 199.386 348.206C212.966 352.223 227.005 354.48 241.159 354.922C241.894 354.943 242.616 354.958 243.316 354.972C243.564 354.979 243.805 354.986 244.045 354.986C244.838 354.993 245.623 355 246.415 355C248.014 355 249.606 354.976 251.191 354.929C262.922 354.599 274.583 353.021 285.98 350.223C285.902 345.517 285.69 340.019 285.386 334.145C285.244 331.265 282.068 328.144 281.877 325.129C281.742 322.865 284.593 320.734 284.445 318.434C283.483 304.274 282.28 309.71 281.388 299.682C281.296 298.698 281.211 297.757 281.134 296.858C280.561 290.419 280.164 286.392 280.164 286.392L283.971 262.395L289.949 224.718L289.489 223.961L288.973 223.706L257.439 208.095L255.726 203.707C255.228 202.443 254.362 201.357 253.241 200.589C252.12 199.821 250.795 199.406 249.437 199.397L228.664 199.313C227.586 199.308 226.522 199.56 225.561 200.049C224.6 200.537 223.769 201.248 223.138 202.122L217.513 209.913L180.304 233.776Z" fill="#3F3D56"/>
<path d="M202.698 281.424L197.992 291.494L194.78 298.373L189.255 327.31L186.488 330.246L184.118 319.85L159.311 325.359C158.497 320.837 159.093 325.512 158.59 320.551C158.732 320.41 158.881 320.268 159.029 320.127C159.425 319.759 159.758 319.412 159.751 319.079C159.468 301.968 160.317 272.847 167.406 255.205C168.517 252.324 169.981 249.593 171.765 247.073C171.906 246.882 172.04 246.691 172.175 246.5C175.444 241.922 177.51 237.414 180.439 234.208V234.201C180.457 234.186 180.474 234.17 180.488 234.151C180.499 234.146 180.509 234.139 180.517 234.13L200.639 223.458L201.502 247.717L202.117 265.155L202.698 281.424Z" fill="#3F3D56"/>
<path d="M275.254 284.284L281.131 296.862L283.182 301.242L288.706 330.176L291.464 333.106L293.839 322.712L294.956 322.483L315.087 318.312L320.955 336.952C322.277 334.748 322.798 332.155 322.43 329.611C322.061 327.067 320.825 324.728 318.932 322.99C318.531 322.628 318.197 322.275 318.207 321.941C318.541 301.815 317.31 265.065 306.195 249.939C302.665 245.139 300.547 240.358 297.465 237.018C297.455 237.009 297.455 236.999 297.446 236.999L289.947 224.717L289.489 223.963L288.973 223.706L275.254 284.284Z" fill="#3F3D56"/>
<path d="M239.65 193.4C254.913 193.4 267.286 181.024 267.286 165.758C267.286 150.492 254.913 138.116 239.65 138.116C224.387 138.116 212.014 150.492 212.014 165.758C212.014 181.024 224.387 193.4 239.65 193.4Z" fill="#FFB6B6"/>
<path d="M277.003 146.45C276.789 146.221 276.531 146.038 276.244 145.911C275.958 145.784 275.648 145.717 275.335 145.712L275.75 144.558C275.886 144.195 275.923 143.802 275.856 143.419C275.79 143.037 275.624 142.679 275.374 142.383C275.124 142.086 274.8 141.861 274.434 141.731C274.069 141.601 273.675 141.57 273.294 141.642L271.781 141.934L271.924 140.923C271.978 140.546 271.934 140.162 271.795 139.808C271.656 139.453 271.428 139.141 271.132 138.902C270.836 138.663 270.483 138.505 270.107 138.444C269.732 138.383 269.347 138.42 268.99 138.553C268.666 138.681 268.317 138.734 267.969 138.71C267.621 138.685 267.284 138.583 266.98 138.41C266.676 138.243 266.412 138.012 266.206 137.732C266.001 137.453 265.858 137.132 265.79 136.791L265.262 134.248L265.207 134.111C262.639 129.831 257.702 126.717 251.661 125.575C246.284 124.552 240.77 125.073 235.455 125.563C233.346 125.761 230.964 125.985 228.98 127.201C227.293 128.243 225.866 130.327 226.158 132.43C220.917 130.824 215.298 134.031 212.513 138.075C209.213 142.889 208.674 148.919 208.587 153.634C208.351 164.788 210.652 173.913 215.409 180.762C215.757 181.258 215.844 182.294 216.532 182.641L216.389 182.412C217.158 182.796 217.94 183.417 217.648 184.081C216.811 185.991 222.374 190.216 226.294 191.612C233.445 194.161 242.953 193.944 249.639 193.026L249.875 191.444C252.288 191.115 253.987 190.489 254.464 189.509C255.308 188.789 256.027 188.144 256.654 187.548L256.66 187.542C256.672 187.53 256.697 187.511 256.71 187.499C259.73 184.602 260.431 182.952 260.747 180.439C261.051 177.976 260.512 175.476 259.96 173.224C271.583 175.024 255.382 160.842 266.211 158.1C266.336 158.062 266.462 158.031 266.59 158.007C266.906 157.933 267.222 157.858 267.526 157.772C268.991 157.374 270.394 156.775 271.694 155.991C274.721 154.149 275.719 151.705 277.282 148.95C277.508 148.558 277.602 148.104 277.552 147.654C277.502 147.205 277.31 146.783 277.003 146.45Z" fill="#2F2E41"/>
<path d="M337.394 286.252C337.388 287.338 337.375 288.858 337.326 290.737C337.319 290.998 337.313 291.265 337.307 291.538C337.226 294.993 337.146 297.89 337.016 301.11C337.009 301.333 337.003 301.55 336.991 301.773C336.817 306.265 336.544 311.494 336.073 319.776C335.198 335.074 333.673 321.879 332.141 327.245C332.066 327.512 331.986 327.828 331.911 328.2C331.679 329.551 331.288 330.869 330.745 332.127C329.933 332.611 329.095 333.076 328.27 333.541C325.92 334.85 323.532 336.11 321.126 337.307C319.773 337.977 318.415 338.635 317.051 339.267C316.834 339.367 316.623 339.466 316.412 339.559C309.425 342.792 302.223 345.54 294.859 347.785C293.42 348.219 291.988 348.641 290.536 349.032C289.023 349.453 287.51 349.851 285.978 350.223C274.581 353.021 262.92 354.599 251.19 354.931C249.608 354.981 248.014 354.999 246.414 354.999C245.62 354.999 244.839 354.993 244.045 354.987C243.803 354.987 243.561 354.981 243.319 354.975C242.618 354.956 241.893 354.944 241.161 354.925C227.007 354.483 212.968 352.225 199.389 348.207L198.812 348.039C197.919 347.766 197.032 347.499 196.145 347.214C192.052 345.917 188.018 344.466 184.045 342.859C181.012 341.637 178.014 340.326 175.052 338.926C175.025 338.919 174.999 338.906 174.977 338.889C174.357 338.604 173.731 338.306 173.111 338.002C173.03 337.958 172.943 337.915 172.856 337.872C170.543 336.742 168.254 335.56 165.99 334.323C164.086 329.95 161.407 329.112 159.745 325.266C159.261 324.123 158.911 322.928 158.703 321.705C158.703 321.693 158.697 321.68 158.697 321.662C158.87 323.969 157.959 317.567 158.69 321.637C158.684 321.563 158.678 321.482 158.672 321.389C158.653 321.165 158.628 320.893 158.591 320.551C156.464 299.776 156.6 276.016 155.676 256.438C155.614 255.173 155.55 253.961 155.484 252.803C155.465 252.418 155.441 252.04 155.416 251.668C155.459 251.556 155.509 251.438 155.565 251.327C155.576 251.294 155.591 251.263 155.608 251.233C155.626 251.195 155.647 251.158 155.67 251.122C155.682 251.103 155.701 251.078 155.713 251.06C155.722 251.038 155.733 251.018 155.744 250.998C155.8 250.911 155.862 250.818 155.93 250.731C155.961 250.694 155.986 250.663 156.017 250.632C156.039 250.6 156.064 250.571 156.092 250.545C156.111 250.515 156.134 250.488 156.16 250.464C156.185 250.439 156.21 250.408 156.241 250.377C156.254 250.358 156.271 250.341 156.29 250.328C156.339 250.271 156.393 250.22 156.451 250.173C156.673 249.969 156.909 249.782 157.159 249.614C157.245 249.559 157.338 249.503 157.425 249.441C158.05 249.067 158.708 248.751 159.391 248.498C159.627 248.411 159.863 248.33 160.117 248.243C160.21 248.219 160.297 248.188 160.39 248.157C160.526 248.113 160.663 248.07 160.805 248.039C161.512 247.828 162.275 247.648 163.1 247.48C163.199 247.462 163.305 247.443 163.41 247.418C163.559 247.387 163.714 247.363 163.869 247.338C164.08 247.3 164.297 247.263 164.514 247.226C166.356 246.934 168.446 246.717 170.754 246.575C170.971 246.562 171.188 246.55 171.405 246.537C171.659 246.525 171.913 246.513 172.174 246.5C172.391 246.488 172.614 246.482 172.838 246.475C173.055 246.463 173.278 246.457 173.507 246.451C174.134 246.432 174.779 246.413 175.436 246.401C177.309 246.364 179.282 246.376 181.353 246.42C182.315 246.444 183.295 246.469 184.299 246.513C184.368 246.513 184.43 246.519 184.492 246.519C185.366 246.55 186.247 246.587 187.152 246.637C187.785 246.668 188.424 246.699 189.062 246.736C189.664 246.773 190.272 246.81 190.886 246.854C191.364 246.879 191.841 246.916 192.325 246.947C192.734 246.978 193.144 247.009 193.553 247.034L194.111 247.071C194.415 247.096 194.719 247.114 195.029 247.145C195.711 247.201 196.393 247.257 197.088 247.313C197.777 247.375 198.477 247.437 199.178 247.499C199.879 247.561 200.586 247.629 201.293 247.698C201.368 247.704 201.436 247.71 201.504 247.716C202.149 247.784 202.794 247.846 203.445 247.915C203.594 247.927 203.749 247.939 203.898 247.958C204.519 248.02 205.152 248.093 205.779 248.16C205.971 248.181 206.162 248.201 206.355 248.222C206.846 248.275 207.33 248.322 207.824 248.38C208.475 248.454 209.139 248.523 209.784 248.609C210.286 248.665 210.789 248.721 211.291 248.783C212.079 248.876 212.879 248.975 213.679 249.081C213.983 249.118 214.287 249.155 214.591 249.199C216.873 249.484 219.18 249.8 221.525 250.129C225.079 250.632 228.688 251.178 232.323 251.767C235.963 252.356 239.625 252.979 243.307 253.634C244.237 253.802 245.167 253.969 246.104 254.143C246.526 254.224 246.947 254.304 247.369 254.385C248.089 254.515 248.808 254.652 249.527 254.788C250.247 254.925 250.966 255.061 251.686 255.204C252.542 255.371 253.404 255.539 254.26 255.706C259.898 256.823 265.504 258.014 270.975 259.261C271.874 259.465 272.773 259.676 273.666 259.881C275.453 260.297 277.222 260.719 278.975 261.147C279.459 261.258 279.937 261.376 280.414 261.494C281.605 261.792 282.796 262.09 283.968 262.394L284.173 262.449C285.035 262.66 285.878 262.877 286.722 263.101C288.713 263.622 290.671 264.149 292.595 264.683C293.873 265.036 295.136 265.394 296.385 265.756C298.252 266.296 300.081 266.841 301.861 267.394C302.302 267.53 302.742 267.667 303.176 267.797C304.479 268.2 305.763 268.609 307.009 269.019C308.002 269.341 308.969 269.67 309.924 269.999C310.879 270.328 311.816 270.657 312.734 270.985C313.323 271.196 313.906 271.42 314.489 271.631C315.326 271.941 316.151 272.251 316.958 272.561C317.206 272.654 317.448 272.753 317.689 272.846C317.845 272.915 317.993 272.971 318.142 273.033C318.434 273.15 318.731 273.262 319.017 273.38C319.308 273.492 319.594 273.609 319.879 273.734C320.158 273.845 320.443 273.963 320.716 274.081C320.995 274.193 321.268 274.31 321.541 274.435C321.771 274.528 321.994 274.627 322.211 274.726C322.651 274.918 323.092 275.111 323.52 275.309C323.73 275.409 323.941 275.502 324.152 275.601L324.636 275.824C324.704 275.861 324.772 275.892 324.841 275.923C324.996 275.998 325.157 276.078 325.312 276.153C325.672 276.32 326.025 276.5 326.373 276.668C326.838 276.904 327.29 277.139 327.725 277.369C328.165 277.605 328.593 277.84 329.002 278.07C329.07 278.107 329.132 278.144 329.201 278.181C329.294 278.231 329.387 278.287 329.48 278.337C329.796 278.516 330.1 278.703 330.404 278.882C330.999 279.248 331.564 279.608 332.091 279.968C332.209 280.049 332.32 280.129 332.438 280.204C332.829 280.483 333.201 280.756 333.548 281.035C333.548 281.041 333.548 281.041 333.555 281.041C333.673 281.128 333.784 281.221 333.896 281.308C333.989 281.395 334.088 281.469 334.181 281.556C334.504 281.835 334.801 282.102 335.074 282.375C335.166 282.459 335.253 282.548 335.335 282.642C335.371 282.672 335.404 282.705 335.434 282.741C335.558 282.865 335.67 282.989 335.775 283.113C335.791 283.13 335.806 283.149 335.818 283.169C335.967 283.343 336.104 283.516 336.234 283.69C336.296 283.777 336.364 283.864 336.42 283.951C336.494 284.056 336.569 284.168 336.631 284.273C336.687 284.36 336.736 284.453 336.786 284.54C336.918 284.764 337.03 284.998 337.121 285.241C337.191 285.406 337.247 285.576 337.288 285.75C337.335 285.914 337.371 286.082 337.394 286.252Z" fill="#2F2E41"/>
<path opacity="0.2" d="M337.394 286.252C337.388 287.338 337.375 288.858 337.326 290.737C337.319 290.998 337.307 291.265 337.301 291.538C337.239 294.174 337.146 297.431 337.016 301.11C337.009 301.333 337.003 301.55 336.991 301.773C336.817 306.265 336.544 311.494 336.073 319.776C335.198 335.074 333.673 321.879 332.141 327.245C327.886 324.627 323.222 321.885 318.235 319.069C317.336 318.56 316.428 318.049 315.513 317.536C305.539 311.972 294.4 306.141 282.771 300.365C282.312 300.136 281.847 299.906 281.388 299.683C254.75 286.513 225.674 273.703 202.118 265.154C197.572 263.504 193.23 262.015 189.149 260.706C180.553 257.958 173.123 256.035 167.404 255.204C161.45 254.335 157.338 254.645 155.676 256.438C155.614 255.173 155.55 253.961 155.484 252.803C155.459 252.418 155.434 252.04 155.409 251.668C155.448 251.566 155.497 251.468 155.546 251.37C155.552 251.355 155.557 251.341 155.564 251.327C155.576 251.294 155.591 251.263 155.608 251.233C155.626 251.195 155.647 251.158 155.67 251.122C155.69 251.078 155.715 251.036 155.744 250.998C155.8 250.911 155.862 250.818 155.93 250.731C155.981 250.666 156.034 250.604 156.092 250.545C156.111 250.515 156.134 250.488 156.16 250.464C156.185 250.439 156.21 250.408 156.241 250.377C156.254 250.358 156.271 250.341 156.29 250.328C156.339 250.271 156.393 250.219 156.451 250.173C156.673 249.969 156.909 249.782 157.158 249.614C157.245 249.559 157.338 249.503 157.425 249.441C158.05 249.067 158.708 248.751 159.391 248.498C159.627 248.411 159.863 248.33 160.117 248.243C160.21 248.219 160.297 248.188 160.39 248.157C160.526 248.113 160.663 248.07 160.805 248.039C161.512 247.828 162.275 247.648 163.1 247.48C163.348 247.431 163.609 247.381 163.869 247.338C164.08 247.3 164.297 247.263 164.514 247.226C166.356 246.934 168.446 246.717 170.754 246.575C170.971 246.562 171.188 246.55 171.405 246.537C171.659 246.525 171.913 246.513 172.174 246.5C172.391 246.488 172.614 246.482 172.838 246.475C173.055 246.463 173.278 246.457 173.507 246.451C174.134 246.432 174.779 246.413 175.436 246.401C177.309 246.37 179.282 246.382 181.353 246.426C182.315 246.444 183.294 246.475 184.299 246.519C184.361 246.519 184.429 246.525 184.491 246.525C185.366 246.55 186.253 246.593 187.152 246.637C187.785 246.668 188.424 246.699 189.062 246.736C189.664 246.773 190.272 246.81 190.886 246.854C191.363 246.879 191.841 246.916 192.325 246.947C192.734 246.978 193.143 247.009 193.553 247.034C194.043 247.071 194.533 247.108 195.029 247.145C195.711 247.201 196.393 247.257 197.088 247.313C197.777 247.375 198.477 247.437 199.178 247.499C199.879 247.561 200.586 247.629 201.293 247.697C201.368 247.704 201.436 247.71 201.504 247.716C202.149 247.784 202.794 247.846 203.445 247.915C207.055 248.281 210.77 248.709 214.591 249.199C216.873 249.49 219.184 249.803 221.525 250.135C225.079 250.638 228.688 251.184 232.323 251.767C235.963 252.356 239.625 252.979 243.307 253.634C244.237 253.802 245.167 253.969 246.104 254.143C247.245 254.354 248.386 254.569 249.528 254.788C250.247 254.925 250.966 255.061 251.686 255.204C252.542 255.371 253.404 255.539 254.26 255.706C259.898 256.823 265.504 258.014 270.975 259.261C271.874 259.465 272.773 259.676 273.666 259.881C275.453 260.297 277.222 260.719 278.975 261.147C279.459 261.265 279.937 261.382 280.414 261.5C281.611 261.798 282.796 262.096 283.968 262.394V262.4C284.036 262.412 284.105 262.431 284.173 262.449C285.029 262.667 285.878 262.884 286.722 263.107C288.713 263.628 290.671 264.153 292.595 264.683C293.873 265.042 295.138 265.396 296.385 265.756C298.252 266.302 300.082 266.848 301.862 267.394C302.302 267.53 302.742 267.667 303.176 267.797C304.479 268.206 305.757 268.614 307.009 269.019C308.002 269.341 308.969 269.67 309.924 269.999C310.88 270.328 311.816 270.657 312.734 270.985C313.329 271.196 313.912 271.413 314.489 271.624C315.333 271.935 316.151 272.245 316.958 272.561C317.206 272.654 317.448 272.753 317.689 272.846C318.142 273.02 318.583 273.2 319.017 273.38C319.308 273.492 319.594 273.609 319.879 273.734C320.158 273.845 320.443 273.963 320.716 274.081C320.995 274.193 321.268 274.31 321.541 274.435C321.771 274.528 321.994 274.627 322.211 274.726C322.651 274.918 323.092 275.111 323.52 275.309C323.73 275.408 323.941 275.502 324.152 275.601L324.636 275.824C324.704 275.861 324.772 275.892 324.841 275.923C325.368 276.172 325.876 276.42 326.373 276.668C326.838 276.904 327.29 277.139 327.725 277.369C328.239 277.642 328.729 277.909 329.201 278.181C329.294 278.231 329.387 278.287 329.48 278.337C329.796 278.516 330.1 278.703 330.404 278.882C330.999 279.248 331.564 279.608 332.091 279.968C332.612 280.328 333.096 280.681 333.548 281.035C333.548 281.041 333.548 281.041 333.555 281.041C333.772 281.215 333.983 281.389 334.181 281.556C334.504 281.835 334.801 282.102 335.074 282.375C335.166 282.459 335.253 282.548 335.335 282.642C335.371 282.672 335.404 282.705 335.434 282.741C335.564 282.884 335.694 283.026 335.819 283.169C335.967 283.343 336.104 283.516 336.234 283.69C336.296 283.777 336.364 283.864 336.42 283.951C336.495 284.056 336.569 284.168 336.631 284.273C336.687 284.36 336.736 284.453 336.786 284.54C336.918 284.764 337.03 284.998 337.121 285.241C337.189 285.406 337.245 285.576 337.288 285.75C337.335 285.915 337.371 286.082 337.394 286.252Z" fill="black"/>
</g>
<defs>
<clipPath id="clip0_1_700">
<rect width="488" height="355" fill="white"/>
</clipPath>
</defs>
</svg>
