<svg width="71" height="72" viewBox="0 0 71 72" fill="none" xmlns="http://www.w3.org/2000/svg">
<g clip-path="url(#clip0_1_809)">
<path d="M49.046 51.5368C57.5872 44.1121 58.4909 31.1715 51.0672 22.6315C43.6435 14.0915 30.7031 13.1855 22.1619 20.6102C13.6219 28.0339 12.7169 40.9755 20.1406 49.5155C27.5644 58.0556 40.5059 58.9605 49.046 51.5368ZM23.2382 21.8484C31.0825 15.0295 43.0123 15.8637 49.8312 23.708C56.6501 31.5522 55.8159 43.482 47.9717 50.301C40.1274 57.1199 28.1986 56.2868 21.3787 48.4414C14.5598 40.5971 15.394 28.6673 23.2382 21.8484Z" fill="#00C302"/>
<path d="M42.3221 41.9061L43.9577 42.0204L44.9409 27.959L30.8806 26.9769L30.7662 28.6126L42.0347 29.4005L27.0266 42.4469L28.1019 43.6839L43.11 30.6375L42.3221 41.9061Z" fill="#EBEBEB"/>
</g>
<defs>
<clipPath id="clip0_1_809">
<rect width="50" height="50" fill="white" transform="translate(37.9595 0.676941) rotate(49)"/>
</clipPath>
</defs>
</svg>
