<svg width="41" height="41" viewBox="0 0 41 41" fill="none" xmlns="http://www.w3.org/2000/svg">
<path d="M23.4896 17.0833C23.4896 17.7909 24.0632 18.3646 24.7708 18.3646H25.9484L22.5104 21.8028C22.3435 21.9695 22.0732 21.9695 21.9063 21.8028L19.1972 19.0937C18.0298 17.9262 16.1369 17.9262 14.9694 19.0937L11.0524 23.0107C10.552 23.5111 10.552 24.3222 11.0524 24.8226C11.5527 25.323 12.364 25.323 12.8643 24.8226L16.7813 20.9056C16.9481 20.7388 17.2185 20.7388 17.3854 20.9056L20.0944 23.6146C21.2619 24.7821 23.1548 24.7821 24.3222 23.6146L27.7604 20.1766V21.3542C27.7604 22.0618 28.3341 22.6354 29.0417 22.6354C29.7493 22.6354 30.3229 22.0618 30.3229 21.3542V17.0833C30.3229 16.3757 29.7493 15.8021 29.0417 15.8021H24.7708C24.0632 15.8021 23.4896 16.3757 23.4896 17.0833Z" fill="#00C302"/>
<path fill-rule="evenodd" clip-rule="evenodd" d="M20.4019 2.13541C16.4585 2.13539 13.368 2.13537 10.9567 2.45956C8.48865 2.79139 6.54111 3.48385 5.01248 5.01248C3.48385 6.54111 2.79139 8.48865 2.45956 10.9567C2.13537 13.368 2.13539 16.4585 2.13541 20.4019V20.598C2.13539 24.5416 2.13537 27.6319 2.45956 30.0433C2.79139 32.5113 3.48385 34.459 5.01248 35.9876C6.54111 37.5162 8.48865 38.2086 10.9567 38.5405C13.368 38.8646 16.4585 38.8646 20.4019 38.8646H20.598C24.5416 38.8646 27.6319 38.8646 30.0433 38.5405C32.5113 38.2086 34.459 37.5162 35.9876 35.9876C37.5162 34.459 38.2086 32.5113 38.5405 30.0433C38.8646 27.6319 38.8646 24.5416 38.8646 20.598V20.4019C38.8646 16.4585 38.8646 13.368 38.5405 10.9567C38.2086 8.48865 37.5162 6.54111 35.9876 5.01248C34.459 3.48385 32.5113 2.79139 30.0433 2.45956C27.6319 2.13537 24.5416 2.13539 20.598 2.13541H20.4019ZM6.82444 6.82444C7.79759 5.85127 9.11424 5.29283 11.2982 4.99921C13.519 4.70062 16.4372 4.69791 20.5 4.69791C24.5627 4.69791 27.4809 4.70062 29.7018 4.99921C31.8857 5.29283 33.2023 5.85127 34.1755 6.82444C35.1488 7.79759 35.7072 9.11424 36.0007 11.2982C36.2993 13.519 36.3021 16.4372 36.3021 20.5C36.3021 24.5627 36.2993 27.4809 36.0007 29.7018C35.7072 31.8857 35.1488 33.2023 34.1755 34.1755C33.2023 35.1488 31.8857 35.7072 29.7018 36.0007C27.4809 36.2993 24.5627 36.3021 20.5 36.3021C16.4372 36.3021 13.519 36.2993 11.2982 36.0007C9.11424 35.7072 7.79759 35.1488 6.82444 34.1755C5.85127 33.2023 5.29283 31.8857 4.99921 29.7018C4.70062 27.4809 4.69791 24.5627 4.69791 20.5C4.69791 16.4372 4.70062 13.519 4.99921 11.2982C5.29283 9.11424 5.85127 7.79759 6.82444 6.82444Z" fill="#00C302"/>
</svg>
